# Blender v2.71 (sub 0) OBJ File: 'vaiseau_pirate.blend'
# www.blender.org
mtllib vaiseau_pirate.mtl
o Cube_Cube.001
v -0.594063 0.248115 -0.295717
v -0.594063 0.135964 -1.478564
v 0.594063 0.135964 -1.478564
v 0.594063 0.248115 -0.295717
v -0.594063 1.000000 -0.295717
v -0.594063 1.112150 -1.478564
v 0.594063 1.112150 -1.478564
v 0.594063 1.000000 -0.295717
v -0.284220 0.403773 -2.078149
v 0.284220 0.403773 -2.078149
v -0.284220 0.844342 -2.078149
v 0.284220 0.844342 -2.078149
v -0.284220 0.444424 -3.008117
v 0.284220 0.444424 -3.008117
v -0.284220 0.803691 -3.008117
v 0.284220 0.803691 -3.008117
v -0.110898 0.518482 -3.656647
v 0.110898 0.518482 -3.656647
v -0.110898 0.729633 -3.656647
v 0.110898 0.729633 -3.656647
v -1.666010 0.020403 1.001344
v 1.666010 0.020403 1.001344
v -1.666010 1.227712 1.001344
v 1.666010 1.227712 1.001344
v -1.666010 0.020403 2.237222
v 1.666010 0.020403 2.237222
v -1.666010 1.227712 2.237222
v 1.666010 1.227712 2.237222
v -0.620980 0.301927 2.653260
v 0.620980 0.301927 2.653260
v -0.620980 0.946188 2.653260
v 0.620980 0.946188 2.653260
v -1.666010 0.020403 1.619283
v 1.666010 0.020403 1.619283
v 1.666010 1.227712 1.619283
v -1.666010 1.227712 1.619283
v 3.866011 0.442961 0.601344
v 3.866011 0.805154 0.601344
v 3.466011 0.442961 1.619283
v 3.466011 0.805154 1.619283
v -3.866011 0.442961 0.601344
v -3.866011 0.805154 0.601344
v -3.466011 0.442961 1.619283
v -3.466011 0.805154 1.619283
v 2.766011 0.231682 0.801344
v 2.766011 1.016433 0.801344
v -2.766011 1.016433 0.801344
v -2.766011 0.231682 0.801344
v 3.268797 0.624057 -1.758331
v -3.268797 0.624057 -1.758331
vt 0.301322 0.735212
vt 0.367182 0.728981
vt 0.367171 0.783333
vt 0.301313 0.777076
vt 0.250646 0.124843
vt 0.184504 0.124843
vt 0.201753 0.088286
vt 0.233398 0.088286
vt 0.632963 0.729081
vt 0.698798 0.735356
vt 0.698777 0.777206
vt 0.632936 0.783417
vt 0.184504 0.190987
vt 0.250646 0.190987
vt 0.310321 0.264298
vt 0.124829 0.264298
vt 0.250645 0.531399
vt 0.250645 0.597543
vt 0.184503 0.597542
vt 0.184503 0.531399
vt 0.201754 0.036467
vt 0.233398 0.036467
vt 0.595377 0.768492
vt 0.595389 0.743969
vt 0.233396 0.634099
vt 0.201752 0.634099
vt 0.404757 0.743900
vt 0.404752 0.768430
vt 0.211402 0.000129
vt 0.223750 0.000129
vt 0.543615 0.766205
vt 0.543624 0.746207
vt 0.233396 0.685919
vt 0.201752 0.685918
vt 0.456534 0.746175
vt 0.456529 0.766178
vt 0.493907 0.750308
vt 0.506255 0.750313
vt 0.506251 0.762067
vt 0.493904 0.762064
vt 0.223747 0.722256
vt 0.211400 0.722256
vt 0.124828 0.458088
vt 0.310320 0.458088
vt 0.792463 0.722728
vt 0.792430 0.789927
vt 0.207620 0.789736
vt 0.207633 0.722514
vt 0.124829 0.333099
vt 0.310321 0.333099
vt 0.252145 0.361064
vt 0.183005 0.361064
vt 0.559907 0.857397
vt 0.559908 0.790187
vt 0.660111 0.813711
vt 0.660111 0.833874
vt 0.525507 0.857397
vt 0.525508 0.790187
vt 0.296733 0.857397
vt 0.296733 0.790186
vt 0.331134 0.790186
vt 0.331134 0.857397
vt 0.462891 0.841725
vt 0.393752 0.841725
vt 0.393752 0.805859
vt 0.462891 0.805859
vt 0.310321 0.389287
vt 0.124828 0.389287
vt 0.183005 0.361322
vt 0.252144 0.361322
vt 0.310321 0.298698
vt 0.372677 0.253163
vt 0.435019 0.241952
vt 0.413251 0.298814
vt 0.124828 0.423687
vt 0.062472 0.469223
vt 0.000129 0.480434
vt 0.021897 0.423571
vt 0.720998 0.813712
vt 0.720997 0.833875
vt 0.310321 0.423688
vt 0.413251 0.423571
vt 0.435020 0.480434
vt 0.372677 0.469223
vt 0.196526 0.833873
vt 0.196526 0.813709
vt 0.135638 0.833873
vt 0.135638 0.813709
vt 0.124829 0.298698
vt 0.021898 0.298815
vt 0.000129 0.241952
vt 0.062472 0.253163
vt 0.854687 0.734519
vt 0.854666 0.778199
vt 0.145371 0.777961
vt 0.145379 0.734266
vt 0.856501 0.823796
vt 0.403938 0.109676
vt 0.403938 0.612712
vt 0.999871 0.756432
vt 0.000129 0.756087
vt 0.031211 0.109674
vt 0.031212 0.612712
vt 0.000129 0.823791
vn -1.000000 0.000000 0.000000
vn 0.000000 -0.913100 -0.407800
vn 1.000000 0.000000 0.000000
vn 0.000000 -0.984900 -0.172900
vn 0.000000 -0.995500 0.094400
vn 0.000000 0.995500 0.094400
vn 0.000000 -0.999000 -0.043700
vn 0.888400 0.000000 -0.459100
vn 0.000000 0.913100 -0.407800
vn -0.888400 0.000000 -0.459100
vn 0.000000 -0.993500 -0.113500
vn 0.000000 0.999000 -0.043700
vn 0.000000 0.000000 -1.000000
vn 0.966100 0.000000 -0.258200
vn 0.000000 0.993500 -0.113500
vn -0.966100 0.000000 -0.258200
vn 0.000000 0.984900 -0.172900
vn 0.770800 0.000000 -0.637000
vn -0.770800 0.000000 -0.637000
vn 0.000000 -0.828200 0.560400
vn 0.000000 0.000000 1.000000
vn 0.000000 0.828200 0.560400
vn 0.369900 0.000000 0.929100
vn -0.369900 0.000000 0.929100
vn 0.211400 -0.976000 0.051700
vn -0.211400 0.976000 0.051700
vn 0.930700 0.000000 0.365700
vn 0.211400 0.976000 0.051700
vn -0.930700 0.000000 0.365700
vn -0.211400 -0.976000 0.051700
vn 0.000000 -1.000000 0.000000
vn -0.178900 0.000000 -0.983900
vn 0.178900 0.000000 -0.983900
vn 0.969400 0.000000 -0.245400
vn 0.166700 -0.979000 -0.117300
vn 0.166700 0.979000 -0.117300
vn -0.981200 0.000000 -0.192700
vn 0.981200 0.000000 -0.192700
vn -0.166700 -0.979000 -0.117300
vn -0.166700 0.979000 -0.117300
vn -0.969400 0.000000 -0.245400
vn 0.000000 1.000000 0.000000
usemtl Material.001
s off
f 5/1/1 6/2/1 2/3/1 1/4/1
f 3/5/2 2/6/2 9/7/2 10/8/2
f 7/9/3 8/10/3 4/11/3 3/12/3
f 1/13/4 4/14/4 22/15/4 21/16/4
f 1/13/5 2/6/5 3/5/5 4/14/5
f 8/17/6 7/18/6 6/19/6 5/20/6
f 10/8/7 9/7/7 13/21/7 14/22/7
f 7/9/8 3/12/8 10/23/8 12/24/8
f 6/19/9 7/18/9 12/25/9 11/26/9
f 2/3/10 6/2/10 11/27/10 9/28/10
f 14/22/11 13/21/11 17/29/11 18/30/11
f 12/24/3 10/23/3 14/31/3 16/32/3
f 11/26/12 12/25/12 16/33/12 15/34/12
f 9/28/1 11/27/1 15/35/1 13/36/1
f 19/37/13 20/38/13 18/39/13 17/40/13
f 16/32/14 14/31/14 18/39/14 20/38/14
f 15/34/15 16/33/15 20/41/15 19/42/15
f 13/36/16 15/35/16 19/37/16 17/40/16
f 8/17/17 5/20/17 23/43/17 24/44/17
f 4/11/18 8/10/18 24/45/18 22/46/18
f 5/1/19 1/4/19 21/47/19 23/48/19
f 25/49/20 26/50/20 30/51/20 29/52/20
f 35/53/21 34/54/21 39/55/21 40/56/21
f 34/54/3 35/53/3 28/57/3 26/58/3
f 36/59/1 33/60/1 25/61/1 27/62/1
f 32/63/21 31/64/21 29/65/21 30/66/21
f 28/67/22 27/68/22 31/69/22 32/70/22
f 26/58/23 28/57/23 32/63/23 30/66/23
f 27/62/24 25/61/24 29/65/24 31/64/24
f 34/71/25 22/15/25 45/72/25 37/73/25 39/74/25
f 36/75/26 23/43/26 47/76/26 42/77/26 44/78/26
f 37/79/27 38/80/27 40/56/27 39/55/27
f 24/44/28 35/81/28 40/82/28 38/83/28 46/84/28
f 33/60/21 36/59/21 44/85/21 43/86/21
f 42/87/29 41/88/29 43/86/29 44/85/29
f 21/16/30 33/89/30 43/90/30 41/91/30 48/92/30
f 21/16/31 22/15/31 34/71/31 26/50/31 25/49/31 33/89/31
f 22/46/32 24/45/32 46/93/32 45/94/32
f 23/48/33 21/47/33 48/95/33 47/96/33
f 38/80/34 37/79/34 49/97/34
f 37/73/35 45/72/35 49/98/35
f 46/84/36 38/83/36 49/99/36
f 45/94/37 46/93/37 49/100/37
f 47/96/38 48/95/38 50/101/38
f 48/92/39 41/91/39 50/102/39
f 42/77/40 47/76/40 50/103/40
f 41/88/41 42/87/41 50/104/41
f 24/44/42 23/43/42 36/75/42 27/68/42 28/67/42 35/81/42
